<svg xmlns="http://www.w3.org/2000/svg" width="503.06699" height="237.366" viewBox="0 0 377.30024 178.02449" fill-rule="evenodd" version="1.1">
  <g transform="translate(-105.38097,-1162.34)">
    <path fill="#1D1D1B" d="m 436.708,1205.89 c -18.496,0 -31.494,5.14 -38.919,15.33 -0.27,-6.29 -0.846,-12.58 -1.449,-18.84 -0.33,-3.4 -2.346,-13.14 -5.963,-19.24 -3.429,-5.79 -7.515,-11.19 -12.744,-15.53 -2.293,-1.89 -5.05,-3.68 -7.948,-4.51 -1.749,-0.51 -3.526,-0.76 -5.274,-0.76 -5.438,0 -10.251,2.48 -13.192,6.81 -3.586,5.29 -3.475,12.86 0.268,18.02 0.762,1.07 1.66,1.94 2.562,2.66 v 4.56 c 0,0.01 -0.008,0.01 -0.008,0.03 v 12.74 c -2.674,-0.56 -5.318,-0.79 -8.201,-0.79 -13.977,0 -24.608,5.32 -30.942,14.94 -0.008,-6.26 -0.008,-13.24 -0.015,-21.06 0,-0.25 -0.008,-0.5 -0.023,-0.74 -0.171,-2.07 -0.711,-3.99 -1.606,-5.7 -4.318,-8.25 -13.731,-11.18 -20.483,-11.18 -6.78,0 -16.222,2.95 -20.48,11.16 -1.315,2.47 -1.494,4.89 -1.61,6.33 l -0.027,0.28 c -0.01,0.09 -0.018,0.18 -0.021,0.28 -0.012,0.24 -0.019,0.37 -0.012,22.13 -7.03,-11.4 -20.271,-17 -39.959,-17 -0.261,0 -0.514,0 -0.766,0.03 h -0.245 c -19.206,0 -27.484,5.97 -30.21,7.93 l -0.198,0.15 c -0.067,0.04 -0.134,0.09 -0.206,0.15 -2.701,2.01 -8.034,6.65 -9.413,12.69 -6.719,-11.8 -19.497,-20.48 -39.163,-20.48 h -0.257 c -30.154,0.11 -44.822,13.02 -44.822,39.45 v 15.91 c -0.015,1.51 0.135,6.19 0.337,9.9 0.171,7.38 0.866,14.77 1.582,22.12 0.334,3.4 2.343,13.14 5.955,19.22 3.436,5.8 7.53,11.2 12.751,15.53 2.287,1.9 5.051,3.7 7.942,4.53 1.755,0.5 3.529,0.75 5.273,0.75 5.443,0 10.253,-2.48 13.2,-6.81 3.59,-5.28 3.478,-12.86 -0.265,-18.04 -0.759,-1.05 -1.662,-1.91 -2.572,-2.63 v -4.56 c 0,-0.02 0.01,-0.02 0.01,-0.03 v -12.75 c 2.678,0.54 5.326,0.79 8.199,0.79 15.13,0 26.325,-6.24 32.414,-17.4 4.586,8.64 15.321,17.17 39.887,17.17 0.926,0 7.19,-0.17 9.94,-0.45 14.64,-1.46 24.774,-6.82 30.612,-16.17 v 1.92 c 0,0.33 0.022,0.68 0.057,1.03 0.265,2.32 1.124,4.4 2.558,6.17 5.599,7.03 16.341,7.57 19.509,7.57 3.168,0 13.968,-0.56 19.541,-7.63 2.047,-2.59 2.362,-5.31 2.51,-6.61 h -0.014 c 0.03,-0.5 0.06,-1.57 0.075,-4.54 6.932,11.06 19.452,19.03 38.292,19.03 h 0.263 c 21.596,-0.09 35.236,-6.73 41.257,-20.2 6.455,13.3 20.289,19.82 41.82,19.82 31.494,0 46.166,-13.15 46.166,-41.39 0,-28.33 -15.038,-42.09 -45.973,-42.09"></path>
    <path fill="#FFFFFF" d="m 305.634,1200.25 c -0.059,-0.74 -0.224,-1.48 -0.574,-2.14 -2.242,-4.3 -7.732,-6.24 -12.289,-6.24 -4.58,0 -10.073,1.94 -12.3,6.24 -0.474,0.9 -0.512,2.1 -0.601,3.08 -0.009,0.19 0.029,73.53 0.029,73.53 0.06,0.48 0.202,0.97 0.572,1.4 2.234,2.85 7.736,4.13 12.3,4.13 4.557,0 10.055,-1.28 12.289,-4.13 0.469,-0.57 0.5,-1.37 0.589,-2.02 0.015,-0.14 -0.015,-73.85 -0.015,-73.85"></path>
    <path fill="#FFFFFF" d="m 399.67,1247.98 c 0,-21.92 10.108,-32.85 37.038,-32.85 26.931,0 36.718,10.93 36.718,32.85 0,22.14 -9.787,32.14 -36.911,32.14 -26.955,0 -36.845,-10.11 -36.845,-32.14 m 47.235,-4.78 c 0,-1.85 -0.09,-3.79 -0.604,-5.51 -0.927,-3.67 -3.369,-7.25 -9.593,-7.25 -6.319,0 -8.867,3.58 -9.794,7.25 -0.508,1.72 -0.619,3.66 -0.619,5.51 -0.091,1.72 0,3.37 0,4.78 0,1.43 -0.091,3.06 0,4.79 0,1.84 0.111,3.78 0.619,5.52 0.927,3.68 3.475,7.24 9.794,7.24 6.224,0 8.666,-3.56 9.593,-7.24 0.514,-1.74 0.604,-3.68 0.604,-5.52 0.105,-1.73 0,-3.45 0,-4.79 0,-1.31 0.105,-3.06 0,-4.78"></path>
    <path fill="#FFFFFF" d="m 230.662,1215.06 v 0.02 c -17.853,-0.2 -24.315,5.16 -26.105,6.41 0,0 -6.802,5.05 -5.949,8.85 0.899,3.95 5.781,2.32 9.206,1.64 6.317,-1.27 13.268,-2.1 19.524,-2.1 4.595,0 14.956,1.47 14.956,8.29 v 3.07 c -22.023,-3.27 -46.096,0.77 -46.096,17.48 0,14.78 12.887,21.47 33.898,21.47 0.862,0 6.715,-0.18 9.023,-0.42 20.57,-2.05 28.263,-12.14 28.263,-31.73 0,-21.92 -9.796,-32.98 -36.72,-32.98 m 7.034,50.35 c -1.247,0.37 -2.652,0.45 -4.026,0.55 h -3.123 c -1.27,-0.1 -2.659,-0.18 -3.904,-0.55 -2.644,-0.66 -5.221,-2.41 -5.221,-6.89 0,-4.55 2.577,-6.39 5.221,-7.06 1.245,-0.35 2.634,-0.44 3.904,-0.53 h 3.123 c 1.374,0.09 2.779,0.18 4.026,0.53 2.632,0.67 5.214,2.51 5.214,7.06 0,4.48 -2.582,6.23 -5.214,6.89"></path>
    <path fill="#E41E13" d="m 136.485,1324.04 c 3.04,0.86 6.389,0.43 8.292,-2.36 1.36,-2 1.386,-5.33 -0.116,-7.41 -0.545,-0.76 -1.722,-1.46 -2.559,-1.82 -1.255,-0.54 -1.312,-0.53 -2.271,-0.83 -1.945,-0.6 -3.813,-1.27 -5.67,-2.11 -4.669,-2.15 -9.14,-4.8 -12.975,-8.24 -1.173,-1.06 -2.286,-2.16 -3.415,-3.27 -0.25,-0.24 -1.356,-1.46 -1.385,-1.8 0.942,8.91 12.726,25.73 20.099,27.84"></path>
    <path fill="#FFFFFF" d="m 150.241,1215.54 c -29.796,0.1 -35.603,12.94 -35.603,30.19 v 15.98 c -0.045,2.14 0.369,11.64 0.564,12.89 1.024,6.34 4.303,12.54 8.829,17.26 5.312,5.5 10.47,8.1 16.308,9.76 v -25.86 c 7.84,3.75 12.248,4.65 17.455,4.65 21.514,0 28.342,-14.69 28.342,-31.11 0,-18.25 -11.217,-33.86 -35.895,-33.76 m 10.679,37.52 c 0,1.86 -0.105,3.79 -0.62,5.51 -0.907,3.67 -3.358,7.24 -9.58,7.24 -6.331,0 -8.879,-3.57 -9.798,-7.24 -0.505,-1.72 -0.612,-3.65 -0.612,-5.51 -0.093,-1.73 0,-3.35 0,-4.78 0,-1.43 -0.093,-3.06 0,-4.79 0,-1.84 0.107,-3.79 0.612,-5.52 0.919,-3.66 3.467,-7.24 9.798,-7.24 6.222,0 8.673,3.58 9.58,7.24 0.515,1.73 0.62,3.68 0.62,5.52 0.093,1.73 0,3.47 0,4.79 0,1.32 0.093,3.05 0,4.78"></path>
    <path fill="#80BA26" d="m 367.152,1171.99 c -3.034,-0.86 -6.394,-0.43 -8.292,2.37 -1.351,1.99 -1.382,5.33 0.113,7.41 0.552,0.75 1.724,1.45 2.569,1.82 1.241,0.53 1.308,0.52 2.264,0.81 1.95,0.61 3.817,1.28 5.67,2.12 4.675,2.15 9.143,4.8 12.975,8.24 1.174,1.05 2.287,2.16 3.414,3.26 0.255,0.24 1.36,1.48 1.39,1.81 -0.941,-8.9 -12.73,-25.72 -20.103,-27.84"></path>
    <path fill="#FFFFFF" d="m 353.399,1280.5 c 29.791,-0.11 35.605,-12.95 35.605,-30.2 v -15.97 c 0.044,-2.16 -0.359,-11.64 -0.554,-12.9 -1.03,-6.35 -4.303,-12.54 -8.845,-17.25 -5.304,-5.5 -10.458,-8.1 -16.306,-9.76 v 25.85 c -7.838,-3.77 -12.245,-4.66 -17.459,-4.66 -21.507,0 -28.341,14.7 -28.341,31.13 0,18.26 11.226,33.86 35.9,33.76 m -10.682,-37.53 c 0,-1.85 0.112,-3.79 0.628,-5.51 0.911,-3.66 3.353,-7.25 9.577,-7.25 6.334,0 8.874,3.59 9.793,7.25 0.515,1.72 0.62,3.66 0.62,5.51 0.089,1.73 0,3.35 0,4.78 0,1.44 0.089,3.06 0,4.8 0,1.83 -0.105,3.78 -0.62,5.51 -0.919,3.67 -3.459,7.24 -9.793,7.24 -6.224,0 -8.666,-3.57 -9.577,-7.24 -0.516,-1.73 -0.628,-3.68 -0.628,-5.51 -0.089,-1.74 0,-3.47 0,-4.8 0,-1.31 -0.089,-3.05 0,-4.78"></path>
    <path fill="#1D1D1B" d="m 211.336,1323.46 -1.751,2.22 c -0.896,-0.44 -1.752,-1.14 -2.581,-2.04 -0.821,-0.92 -1.393,-1.86 -1.722,-2.8 -0.277,0.94 -0.856,1.92 -1.74,2.89 -0.886,0.99 -1.86,1.78 -2.929,2.38 l -1.852,-2.23 c 1.684,-1.14 2.865,-2.44 3.533,-3.89 0.617,-1.39 0.927,-3.31 0.927,-5.75 v -1.36 h 3.91 v 1.36 c 0,2.32 0.325,4.19 0.971,5.61 0.647,1.41 1.722,2.62 3.234,3.61 m 10.052,5.6 -0.459,7.63 h -3.713 v -5.95 c 0,-0.32 -0.041,-0.53 -0.108,-0.64 -0.064,-0.1 -0.247,-0.16 -0.542,-0.16 h -12.445 v -2.71 h 15.571 c 1.196,0 1.763,0.61 1.696,1.83 m -0.104,-2.95 h -3.657 v -5.69 h -2.242 v 5.63 h -3.536 v -13.46 h 3.536 v 5.13 h 2.242 v -5.13 h 3.657 z"></path>
    <path fill="#1D1D1B" d="m 249.066,1322.67 h -3.994 v 14.02 h -4.146 v -8.58 c -0.571,0.6 -1.718,1.08 -3.428,1.47 -1.431,0.33 -3.537,0.49 -6.32,0.49 -1.132,0 -2.084,-0.05 -2.858,-0.13 -1.616,-0.19 -2.42,-1.22 -2.42,-3.1 v -13.86 h 11.467 v 2.7 h -7.321 v 10.57 c 0,0.52 0.228,0.8 0.699,0.87 0.724,0.09 1.64,0.13 2.753,0.13 1.927,0 3.383,-0.08 4.369,-0.29 0.994,-0.2 1.708,-0.44 2.153,-0.77 0.596,-0.41 0.906,-1.05 0.906,-1.88 v -11.72 h 4.146 v 7.38 h 3.994 z"></path>
    <path fill="#1D1D1B" d="m 273.886,1328.13 h -23.559 v -2.67 h 23.559 z m -2.655,-4.43 h -15.468 c -0.814,0 -1.411,-0.17 -1.778,-0.52 -0.358,-0.35 -0.538,-0.91 -0.538,-1.68 v -4.61 h 13.222 v -1.1 c 0,-0.31 -0.156,-0.46 -0.466,-0.46 h -12.756 v -2.66 h 15.983 c 0.993,0 1.464,0.48 1.407,1.41 l -0.336,5.34 h -12.878 v 1.17 c 0,0.3 0.16,0.46 0.489,0.46 h 13.119 z m 0.025,12.99 h -15.877 c -0.685,0 -1.178,-0.13 -1.484,-0.41 -0.299,-0.28 -0.448,-0.75 -0.448,-1.39 v -5.18 h 4.147 v 3.62 c 0,0.43 0.249,0.65 0.753,0.65 h 12.909 z"></path>
    <path fill="#1D1D1B" d="m 306.636,1325.03 h -23.547 v -2.56 h 23.547 z m -1.929,-6.05 -0.716,2.56 c -1.777,-0.12 -3.512,-0.53 -5.244,-1.22 -1.779,-0.72 -3.041,-1.56 -3.78,-2.52 -0.657,0.97 -1.846,1.81 -3.583,2.49 -1.646,0.66 -3.514,1.07 -5.591,1.25 l -0.742,-2.56 c 4.239,-0.53 6.7,-1.78 7.395,-3.7 h -6.526 v -2.61 h 17.862 v 2.61 h -6.439 c 0.836,2.02 3.294,3.26 7.364,3.7 M 303.946,1337 H 288.65 c -1.594,0 -2.393,-0.7 -2.393,-2.11 v -4.35 h 13.117 v -1.04 c 0,-0.32 -0.156,-0.47 -0.463,-0.47 h -12.654 v -2.51 h 15.867 c 1.015,0 1.479,0.45 1.434,1.41 l -0.344,5 h -12.785 v 1.03 c 0,0.31 0.16,0.46 0.493,0.46 h 13.024 z"></path>
    <path fill="#1D1D1B" d="m 330.586,1336.69 h -4.154 v -14.12 h -5.947 c -1.71,3.33 -4.707,6.23 -9.023,8.68 l -1.987,-2.33 c 5.535,-3.46 8.299,-7.64 8.299,-12.51 0,-0.46 -0.239,-0.7 -0.725,-0.7 h -6.977 V 1313 h 10.159 c 1.316,0 1.981,0.71 1.981,2.15 0,1.66 -0.234,3.23 -0.68,4.7 h 4.9 v -7.26 h 4.154 z"></path>
    <path fill="#1D1D1B" d="m 357.366,1326.13 h -9.719 v 1.98 h 5.26 c 0.978,0 1.448,0.5 1.39,1.48 l -0.315,7.41 h -14.784 c -0.769,0 -1.329,-0.16 -1.666,-0.5 -0.328,-0.34 -0.507,-0.9 -0.507,-1.65 v -6.74 h 6.498 v -1.98 h -9.709 v -2.59 h 23.552 z m -4.661,-9.13 c 0,1.66 -0.605,2.97 -1.808,3.91 -1.247,1.03 -3.025,1.54 -5.312,1.54 -2.286,0 -4.048,-0.51 -5.304,-1.54 -1.195,-0.94 -1.8,-2.25 -1.8,-3.91 0,-1.65 0.59,-2.96 1.771,-3.92 1.254,-1.02 3.033,-1.52 5.333,-1.52 2.287,0 4.065,0.5 5.312,1.52 1.203,0.96 1.808,2.27 1.808,3.92 m -2.637,17.42 v -3.22 c 0,-0.34 -0.158,-0.51 -0.485,-0.51 h -8.405 v 3.04 c 0,0.46 0.255,0.69 0.747,0.69 z m -1.39,-17.42 c 0,-0.81 -0.269,-1.46 -0.836,-1.97 -0.553,-0.52 -1.316,-0.79 -2.257,-0.79 -0.948,0 -1.688,0.27 -2.255,0.79 -0.554,0.51 -0.837,1.16 -0.837,1.97 0,0.81 0.283,1.46 0.837,1.98 0.567,0.52 1.307,0.78 2.255,0.78 0.941,0 1.704,-0.26 2.257,-0.78 0.567,-0.52 0.836,-1.17 0.836,-1.98"></path>
    <path fill="#1D1D1B" transform="matrix(0.74999998,0,0,0.74999998,105.38097,1162.34)" d="M 373.91016 196.74609 L 373.91016 196.93359 L 373.91016 215.49414 L 373.91016 215.67969 L 374.07812 215.67969 L 379.13867 215.67969 L 379.29688 215.67969 L 379.29688 215.49414 L 379.29688 207.91992 L 384.49805 207.91992 L 384.67773 207.91992 L 384.67773 207.74609 L 384.67773 203.56055 L 384.67773 203.35938 L 384.49805 203.35938 L 379.29688 203.35938 L 379.29688 199.66602 C 379.29688 197.54602 378.60127 196.74609 376.69727 196.74609 L 374.07812 196.74609 L 373.91016 196.74609 z M 347.37695 197.83984 L 347.37695 198.01367 L 347.37695 201.77344 L 347.37695 201.91992 L 347.53516 201.91992 L 350.76172 201.91992 L 350.76172 211.54688 L 347.30469 211.54688 L 347.14648 211.54688 L 347.14648 211.70703 L 347.14648 215.33398 L 347.14648 215.49414 L 347.30469 215.49414 L 370.33398 215.49414 L 370.49414 215.49414 L 370.49414 215.33398 L 370.49414 211.70703 L 370.49414 211.54688 L 370.33398 211.54688 L 365.13477 211.57422 C 366.7681 209.82755 366.98633 208.07995 366.98633 205.61328 L 366.98633 201.91992 L 370.16602 201.91992 L 370.33398 201.91992 L 370.33398 201.77344 L 370.33398 198.01367 L 370.33398 197.83984 L 370.16602 197.83984 L 347.53516 197.83984 L 347.37695 197.83984 z M 355.89258 201.91992 L 361.86719 201.91992 L 361.86719 205.57422 C 361.86719 208.10755 362.08598 209.68021 360.33398 211.54688 L 355.89258 211.54688 L 355.89258 201.91992 z M 354.29688 218.26758 L 354.29688 222.43945 L 373.93945 222.43945 L 373.93945 225.09375 L 354.45898 225.09375 L 354.45898 229.25391 C 354.45898 229.25391 354.1175 233.44031 356.9375 235.32031 C 361.67883 238.49365 371.56942 237.62708 379.35742 235.09375 L 379.48828 235.03906 L 379.47656 234.93359 L 379.43945 231.58594 L 379.43945 231.35938 L 379.23828 231.41406 C 362.56495 234.76073 360.61133 232.17383 360.61133 232.17383 C 360.09399 231.73383 359.83594 231.14672 359.83594 230.38672 L 359.83594 229.11914 L 379.31641 229.11914 L 379.31641 218.26758 L 354.29688 218.26758 z "></path>
    <path fill="#1D1D1B" d="m 422.836,1330.14 c -1.181,0.49 -5.318,1.34 -10.151,-0.12 v -5.45 c 2.785,-0.35 5.093,-0.92 8.186,-2.1 l 0.075,-0.02 v -3.05 l -0.157,0.07 c -4.37,1.37 -12.782,3.16 -15.74,1.08 -0.769,-0.53 -1.157,-1.32 -1.157,-2.3 v -3.95 h 17.054 v -3.13 h -21.095 v 7.56 c 0,3.85 3.091,5.87 8.753,6.03 v 4.6 c -5.543,-1.07 -9.494,0.01 -10.749,0.43 v 3.22 c 1.285,-0.43 6.276,-1.85 12.364,-0.39 10.383,2.45 12.669,0.78 12.745,0.71 l 0.058,-0.02 v -3.26 z"></path>
  </g>
</svg>