<?xml version="1.0" encoding="utf-8"?>
<!-- Generator: Adobe Illustrator 26.0.0, SVG Export Plug-In . SVG Version: 6.00 Build 0)  -->
<svg version="1.1" id="Layer_1" xmlns="http://www.w3.org/2000/svg" xmlns:xlink="http://www.w3.org/1999/xlink" x="0px" y="0px"
	 viewBox="0 0 300 300" style="enable-background:new 0 0 300 300;" xml:space="preserve">
<style type="text/css">
	.st0{fill-rule:evenodd;clip-rule:evenodd;fill:#F44502;}
	.st1{fill-rule:evenodd;clip-rule:evenodd;fill:#FFFDFD;}
</style>
<g>
	<path class="st0" d="M284.1,296.3H14.6c-6.6,0-12-5.4-12-12V14.9c0-6.6,5.4-12,12-12h269.5c6.6,0,12,5.4,12,12v269.5
		C296.1,290.9,290.7,296.3,284.1,296.3z"/>
	<circle class="st1" cx="149.9" cy="149.6" r="136.2"/>
	<g>
		<polygon class="st0" points="51.3,176.9 48.5,169.4 53.2,162.9 45.2,163.1 40.4,156.7 38.2,164.4 30.6,166.9 37.2,171.4 
			37.3,179.5 43.6,174.5 		"/>
		<polygon class="st0" points="41.8,142.5 51.5,152.5 53.5,138.8 66,132.6 53.6,126.5 51.6,112.7 41.9,122.6 28.2,120.3 34.6,132.6 
			28.1,144.9 		"/>
		<path class="st0" d="M296.1,142.1C292.5,70.1,236.6,9.3,159.8,2.9c-6,0-11.9,0-17.9,0C68.6,6.7,9,63.3,2.6,139.2
			c0,6.4,0.1,12.9,0.1,19.3c4.5,71.2,59,130.4,134.8,137.7c6.4,0,12.9,0,19.3,0.1c72.9-3.7,133-60.2,139.3-136.3
			C296.1,154,296.1,148.1,296.1,142.1z M149,286.3c-75,0.6-135.7-60.5-136.3-137.1c-0.6-75,60.7-135.8,137.2-136.3
			c75.1-0.4,135.7,60.5,136.3,137.1C286.7,225,225.6,285.7,149,286.3z"/>
		<path class="st0" d="M219.9,102.4c-6.7-0.3-5.5,7.9-5.7,13c-0.1,4.5-0.6,11,5.3,11c5.7,0,4.4-6.5,4.9-11.2
			C223.4,110.8,225.4,102.6,219.9,102.4z"/>
		<path class="st0" d="M197.8,109.3c1.3,0.8,2.3,0,3.2-1c5.5-6,12.3-9.6,20-11.8c1.2-0.3,2.4-0.7,2.7-2.2c-0.1-1.4-1.1-1.9-2.5-2
			c-5.2-0.4-21.2,8.9-23.7,13.8C197,107.3,196.4,108.5,197.8,109.3z"/>
		<path class="st0" d="M246.7,115.2c3-6.3,5.3-12.8,4.7-19.9c-0.7-7.1-3.1-12-11.5-13.7c-12.6-2.4-24.8-6.7-33.5-17.1
			c-2.1-2.5-3.8-2.2-6.1-0.1c-7.8,7.4-13,16-14.4,26.8c-1.2,9.6-2,10.1-11.5,7c-2.6-0.8-5.1-1.9-7.4-3.2
			c-15.2-8.6-22.7-28.2-16-41.6c0.9-1.8,4.1-3.6,1.9-5.6c-2.3-2.1-4.5,1-6.3,2.2c-21.2,14.5-30.6,35.9-34.1,60.4
			c-1.3,9-2.3,18-5.1,26.7c-5.4,16.9-4.4,32.4,7.4,47.1c3.9,4.9,11.3,10.9,5.8,19.6c-1.6,2.2-2.9,5.6-5.7,0.8
			c-1.1-1.9-2.7-3.8-4.5-4.8c-10.2-5.4-19-12-24.1-22.7c-1.7-2.6-0.7-4.3,1.3-6.3c5.9-5.9,5.2-8.3-2.7-10.9
			c-9.5-3-11.6-12.6-4.3-19.3c1.4-1.3,3.2-2.3,4.8-3.5c6.7-4.8,6.7-7,0.3-11.9c-13.7-10.6-17.1-24.1-9.9-39.7
			c3.8-8.3,9-15.8,15.6-22.2c8.1-7.8,16.3-15.6,24.4-23.4c1.4-1,2.8-2.1,4.3-2.9c2-1.1,3.3-2.6,2.2-4.7c-1.1-2.4-3.4-1.6-5.2-1
			c-35.6,13.1-62.4,35.8-77.2,71.4c-0.6,1.5-3.1,3.5,0.2,4.8c2.3,0.9,3.3-0.5,4.3-2.6c3.7-7.5,7.2-15.1,11.7-22.1
			c11.9-18.5,28-32,48.6-40.1c-0.4,4.3-4.3,5.8-6.8,8.2C87,61.2,76.8,71.7,71,85.7c-6.6,16-3.6,30.4,8.9,40.4c5,4,6.5,6.3-0.2,10.1
			c-6.1,3.4-8.7,9.3-7.6,16.3c1.1,6.9,5.8,10.5,12.4,11.8c0.6,0.1,1.2,0.7,1.9,1.1c-1.3,3.2-5.1,4.1-5.8,7.5
			c-5.4-1.1-10.7-3.4-16.1-0.1c-8.6,5.5-9.8,12.9-2.3,21.3c4.2,4.6,5.4,9.8,5.8,15.4c0.4,5.1-0.3,10.2-0.5,15.3
			c-2.9-0.4-3.7-3-5-4.9c-5.7-8.3-11.2-16.7-16.8-25.1c-0.8-1.2-1.1-3-3-2.1c-1.4,0.6-2.2,2.1-1.8,3.7c0.3,1.4,0.9,2.8,1.7,4
			c7.4,11.8,16.1,22.6,24.8,33.5c1,1.2,2.3,3.6,3.7,2.1c2.1-2.1,3.4-5.2,1.1-8.3c0,0,0,0,0,0c-2.5-12.4,1-21.7,13.6-26.3
			c8.4-2.4,16.4-2,23.2,4.4c0.9,0.8,2.1,1.6,1.7,3c-0.4,1.6-1.9,1.1-3.1,1.3c-4.9,1-9.9,2.1-14.8,2.9c-1.9,0.3-3.6,0.4-3.1,2.9
			c0.5,2.6,2.6,1.7,4.1,1.4c5-0.9,10-2,15.1-3c6.2-1.2,12.7,5,12,11.3c-0.2,2.1-1.5,2-2.9,2.3c-4.5,0.8-9,1.8-13.4,2.7
			c-1.3,0.3-3.3,0.1-2.6,2.4c0.4,1.5,1.3,2.3,3.3,1.7c3.7-1.2,7.8-0.4,11.3-2.5c8.9-1.6,5.3,5.2,6.1,9.1
			c-1.7,6.1-2.8,12.8-10.5,14.5c-1.7,0.4-3.4,0.4-3.4,2.8c0,2.3,2,2.8,3.4,3.2c5.5,1.4,11,2.5,16.5,3.7c47.5,10.7,85-6.9,116.5-41.3
			c6.5-7.1,6.1-7.5-1.7-13.6c-1.1-0.9-1.9-2.2-2.8-3.3c1.1-6.2,6.9-8,10.8-11.6c4.8-4.4,4.5-7.7-1.2-10.8
			c-14.1-7.7-14.2-8.9-1.7-19.2c0.4-0.3,0.8-0.6,1.1-0.9c8.3-7.3,7.9-13.2-1.3-19.4c-9-6-10.2-9.8-6.2-19.7
			C243.6,121.9,245.1,118.5,246.7,115.2z M82.5,199.7C82.4,199.7,82.4,199.7,82.5,199.7c-0.1,0-0.1,0.1-0.2,0.1
			c-3.4,0.7-6.8,3.5-10.2,4.7c-1-6.1-4.7-10.6-8.3-15.4c-3.4-4.4-2.9-8.7,1.1-12.1c0.6-0.4,1.2-0.8,1.4-1.1c7.1-1,12.7,1.7,17.4,7
			C89.6,189.6,89.4,193.5,82.5,199.7z M138.6,206.8c-7.4,5.7-8.3,13-2.8,18.8c-0.9,1-3.8,3.7-4.7,4.7l0,0c-3.6,0.2-3.7-2.4-4.7-4.3
			c-2.9-5.6-5.8-9.9-6.3-16.4c4.2-2,4.2-10.9,8.3-13.1C128,197.5,137.2,201.9,138.6,206.8z M144.4,218.8
			C144.4,218.8,144.4,218.9,144.4,218.8c-1.9,1.5-3.8,3-5.6,4.5c-0.6-0.5-1.5-1.4-1.6-1.4c-1.7-1.6-2.6-2.9-2.5-4.4
			c-0.4,2.7-0.3,2.1,0.2-0.9c0.5-1.7,5.3-6.5,5.4-6.6c5.5-6.9,8.3,2.3,14.2,1.4c-4.1,3.1-7,5.3-9.9,7.5
			C144.5,218.8,144.4,218.8,144.4,218.8z M134.8,216.6c0.2-1.4,0.6-2.8,1.1-4.3C135.4,213.7,135,215.1,134.8,216.6z M182,260.2
			c-20.9,6-41.8,3.5-63.2-1.9c4.2-5.1,6.5-10.9,8.2-16.9c0.5-0.5,0.9-1,1.4-1.5c0,0,0,0,0-0.1c1.7-1.5,3.1-3.8,6.2-6.6l0,0
			c5.1-3.5,7.7-9.6,13.2-12.9c9.4-7.5,23.3-0.1,29.1,9c1.1,4.7,3.3,7.4,8.8,7.9c5.4,0.5,10.7,0.6,16.1,0c11.8-1.3,22.3-6.7,33.2-11
			C220.7,242.9,202.9,254.2,182,260.2z M245.1,147.7c8.4,5.7,8.5,8.3,0.6,14.8c-1.5,1.2-3.1,2.4-4.6,3.7c-8,6.7-7,15.2,2.4,19.9
			c8,4,8,3.9,1.1,9.6c-2.2,1.8-5,3.4-6.1,6.1c-2.1,3.7-2.8,8.7-1.6,10.3c2,2.9,5.2,2.1,4.2,4.9c-0.4,1,0.1,1.2-3,2.4
			c-0.1,0-0.2,0.2-0.3,0.3c0,0,0,0-0.1-0.1c-14.2,7.3-28.6,14.2-45.1,14c-10-0.1-12.1-2.2-12.5-11.9c0.4-2.3,8.1-4.9,0.5-6.9
			c-17.9-4.6-35.3-10.2-50.4-21.4c-6.6-5.2-12.1-11.6-16.7-18.4c-5.3-7.8-7-16.9-4.2-26.1c4.7-15.6,5.9-31.7,8.8-47.6
			c2.7-14.2,9.4-26.9,18.9-37.9c1.7-2,3.5-4,6.1-3.2c2.9,0.9,1.3,3.8,1.4,5.8c1.2,20.9,18.4,37.6,38.9,37.8c4.7,0,7.2-0.6,6.5-6.6
			c-1.1-10.4,3.4-19.1,10.1-26.8c1.8-2.1,3-3.1,5.7-0.5c8.9,8.7,20.3,12.9,32.1,15.5c7.3,1.6,9.8,5.7,9.6,12.5
			c-0.2,4.5-1.4,8.7-3.2,12.8c-2.1,4.7-4.3,9.4-6.2,14.2C233.8,135.5,235.7,141.4,245.1,147.7z"/>
		<path class="st0" d="M193.2,140.6c-5.7,0.9-10.3,4.7-10,10.2c0.5,8.3-4.4,7.7-9.5,7.4c-2.2-0.1-4.3-0.9-6.4-1.4
			c-1.4-0.3-3.1-1.1-3.6,1c-0.5,1.9,1.2,2.5,2.5,3c3,1.3,6.1,1.9,8.7,1.6c8.9,0,16-3,23-6.8c4.5-2.5,4.8-5.7,3.2-9.9
			C199.7,142.1,197.1,139.9,193.2,140.6z M189.1,155.1c-2.4,0.4-2.5-1.9-2.1-3.7c0.8-3.7,3-6.3,6.9-6.7c3-0.3,3.2,2.4,4.1,4.3
			C196.1,152.9,192.7,154.4,189.1,155.1z"/>
		<path class="st0" d="M145.3,103.9c-2.3,0-4.1,1.8-4.1,3.9V124c0,2.2,1.8,3.9,4.1,3.9c2.3,0,4.1-1.8,4.1-3.9v-16.2
			C149.4,105.7,147.5,103.9,145.3,103.9z"/>
	</g>
</g>
</svg>
